# xmcd
#
# Track frame offsets: 
#        150
#        16029
#        48703
#        67480
#        86135
#        136176
#
# Disc length: 2074 seconds
#
# Revision: 0
# Processed by: cddbd v1.5.2PL0 Copyright (c) Steve Scherf et al.
# Submitted via: ExactAudioCopy v1.3
#
DISCID=52081806
DTITLE=Stevie Watts Organ Trio - Mission To the Moon
DYEAR=2019
DGENRE=Soul
TTITLE0=Camden Starling
TTITLE1=Just Go
TTITLE2=Tronjevity
TTITLE3=Honey Baby
TTITLE4=No Good
TTITLE5=Mission To The Moon
EXTD=
EXTT0=
EXTT1=
EXTT2=
EXTT3=
EXTT4=
EXTT5=
PLAYORDER=
